<?xml version="1.0" encoding="UTF-8"?>
<!DOCTYPE svg PUBLIC "-//W3C//DTD SVG 1.1//EN" "http://www.w3.org/Graphics/SVG/1.1/DTD/svg11.dtd">
<!-- Creator: CorelDRAW 2020 (64-Bit) -->
<svg xmlns="http://www.w3.org/2000/svg" xml:space="preserve" width="210mm" height="297mm" version="1.1" style="shape-rendering:geometricPrecision; text-rendering:geometricPrecision; image-rendering:optimizeQuality; fill-rule:evenodd; clip-rule:evenodd"
viewBox="0 0 21000 29700"
 xmlns:xlink="http://www.w3.org/1999/xlink"
 xmlns:xodm="http://www.corel.com/coreldraw/odm/2003">
 <defs>
  <style type="text/css">
   <![CDATA[
    .fil0 {fill:#2B2A29}
    .fil1 {fill:#2B2A29;fill-rule:nonzero}
   ]]>
  </style>
 </defs>
 <g id="Warstwa_x0020_1">
  <metadata id="CorelCorpID_0Corel-Layer"/>
  <g id="_1639877436336">
   <path class="fil0" d="M16460.29 9826.07l17.29 8.16c108.49,51.24 212.62,120.74 292.24,211.31 79.15,90.05 132.56,198.09 146.73,317.8 16.82,141.99 -23.91,278.67 -112.52,390.77 -57.04,72.15 -130,128.56 -211.89,169.91l-131.85 66.58 17.29 8.16c108.49,51.24 212.62,120.74 292.24,211.31 79.15,90.05 132.56,198.09 146.73,317.8 16.82,141.99 -23.91,278.67 -112.52,390.77 -57.04,72.15 -130,128.56 -211.89,169.91l-8651.74 4368.67c-163.54,82.58 -364.96,106.05 -546.09,96.15 -181.12,-9.89 -372.2,-53.28 -536.34,-130.8l-5064.18 -2391.75c-108.48,-51.24 -212.6,-120.74 -292.23,-211.29 -79.16,-90.04 -132.58,-198.13 -146.74,-317.84 -16.8,-142 23.92,-278.66 112.54,-390.75 57.03,-72.15 129.99,-128.57 211.87,-169.91l131.85 -66.58 -17.29 -8.17c-108.48,-51.23 -212.61,-120.73 -292.23,-211.28 -79.16,-90.04 -132.58,-198.13 -146.74,-317.84 -16.8,-142 23.92,-278.66 112.54,-390.75 57.03,-72.15 129.99,-128.57 211.87,-169.91l131.85 -66.58 -17.29 -8.17c-108.48,-51.23 -212.61,-120.73 -292.23,-211.28 -79.16,-90.04 -132.58,-198.13 -146.74,-317.84 -16.8,-142 23.92,-278.66 112.54,-390.75 57.03,-72.15 129.99,-128.57 211.87,-169.91l131.85 -66.58 -17.29 -8.17c-108.49,-51.23 -212.61,-120.73 -292.24,-211.3 -79.16,-90.05 -132.57,-198.1 -146.73,-317.82 -16.8,-142 23.92,-278.68 112.55,-390.76 57.04,-72.13 129.98,-128.56 211.86,-169.9l8651.74 -4368.67c163.54,-82.58 364.97,-106.05 546.1,-96.15 181.11,9.89 372.2,53.3 536.33,130.81l5064.18 2391.74c108.49,51.24 212.61,120.75 292.23,211.31 79.17,90.04 132.57,198.09 146.74,317.81 16.81,142 -23.91,278.69 -112.55,390.78 -57.03,72.12 -130,128.55 -211.86,169.89l-131.85 66.58 17.29 8.16c108.49,51.24 212.62,120.74 292.24,211.31 79.15,90.05 132.56,198.09 146.73,317.8 16.82,141.99 -23.91,278.67 -112.52,390.77 -57.04,72.15 -130,128.56 -211.89,169.91l-131.85 66.58zm-930.66 469.94l-7589.23 3832.15c-163.54,82.58 -364.96,106.05 -546.09,96.15 -181.12,-9.89 -372.2,-53.28 -536.34,-130.8l-4104.28 -1938.4 -261 131.79 4716.34 2227.46c68.53,32.37 153.24,49.28 228.6,53.4 30.91,1.69 104.61,2.55 132.31,-9.15l8208.74 -4144.98 -249.05 -117.62zm0 1164.53l-7589.23 3832.15c-163.54,82.58 -364.96,106.05 -546.09,96.15 -181.12,-9.89 -372.2,-53.28 -536.34,-130.8l-4104.28 -1938.4 -261 131.79 4716.34 2227.46c68.53,32.37 153.24,49.28 228.6,53.4 30.91,1.69 104.61,2.55 132.31,-9.15l8208.74 -4144.98 -249.05 -117.62zm0 -2329.06l-7589.23 3832.15c-163.54,82.58 -364.96,106.05 -546.09,96.15 -181.12,-9.89 -372.2,-53.28 -536.34,-130.8l-4104.28 -1938.4 -261 131.79 4716.34 2227.46c68.53,32.37 153.24,49.28 228.6,53.4 30.91,1.69 104.61,2.55 132.31,-9.15l8208.74 -4144.98 -249.05 -117.62zm-13036.95 826.35l4716.35 2227.47c68.53,32.37 153.24,49.28 228.6,53.4 30.91,1.69 104.61,2.55 132.31,-9.15l8208.74 -4144.98 -4716.34 -2227.46c-68.42,-32.32 -153.06,-49.28 -228.59,-53.41 -30.91,-1.69 -104.61,-2.55 -132.32,9.15l-8208.75 4144.98z"/>
  </g>
  <path class="fil1" d="M16004.68 9832.08l387.49 183c98.08,46.32 174.65,102.45 227.44,162.51 56.39,64.14 89.57,135.33 98.33,209.27 10.3,87 -12.8,169.81 -70.81,243.22 -35.99,45.5 -84.35,84.71 -145.14,115.41l-497.31 251.12 387.49 183c98.08,46.32 174.65,102.45 227.44,162.51 56.39,64.14 89.57,135.33 98.33,209.27 10.3,87 -12.8,169.81 -70.81,243.22 -35.99,45.5 -84.35,84.71 -145.14,115.41l-8651.74 4368.67c-118.3,59.74 -279.93,84 -445.03,74.98 -156.85,-8.57 -323.43,-46.58 -461.84,-111.95l-5064.18 -2391.75c-98.08,-46.32 -174.65,-102.47 -227.44,-162.51 -56.4,-64.14 -89.6,-135.36 -98.33,-209.27 -10.31,-87.02 12.8,-169.83 70.82,-243.22 35.97,-45.5 84.33,-84.71 145.13,-115.41l497.31 -251.11 -387.49 -183.01c-98.08,-46.32 -174.65,-102.47 -227.44,-162.51 -56.4,-64.14 -89.6,-135.36 -98.33,-209.27 -10.31,-87.02 12.8,-169.83 70.82,-243.22 35.97,-45.5 84.33,-84.71 145.13,-115.41l497.31 -251.11 -387.49 -183.01c-98.08,-46.32 -174.65,-102.47 -227.44,-162.51 -56.4,-64.14 -89.6,-135.36 -98.33,-209.27 -10.31,-87.02 12.8,-169.83 70.82,-243.22 35.97,-45.5 84.33,-84.71 145.13,-115.41l497.31 -251.11 -387.49 -183.01c-98.08,-46.32 -174.65,-102.45 -227.44,-162.51 -56.41,-64.15 -89.6,-135.34 -98.33,-209.27 -10.31,-87.01 12.79,-169.84 70.82,-243.21 35.96,-45.49 84.32,-84.71 145.13,-115.42l8651.74 -4368.67c118.31,-59.74 279.95,-84 445.04,-74.98 156.85,8.57 323.44,46.6 461.83,111.96l5064.18 2391.74c98.09,46.33 174.65,102.47 227.44,162.52 56.4,64.14 89.59,135.33 98.33,209.26 10.31,87.01 -12.79,169.83 -70.82,243.22 -35.96,45.47 -84.33,84.71 -145.13,115.41l-497.31 251.12 387.49 183c98.08,46.32 174.65,102.45 227.44,162.51 56.39,64.14 89.57,135.33 98.33,209.27 10.3,87 -12.8,169.81 -70.81,243.22 -35.99,45.5 -84.35,84.71 -145.14,115.41l-497.31 251.12zm207.25 564.98l-685.24 -323.62 -7676.44 3876.19c-118.3,59.74 -279.93,84 -445.03,74.98 -156.85,-8.57 -323.43,-46.58 -461.84,-111.95l-4192.62 -1980.12 -713.09 360.06c6.84,3.61 14.1,7.24 21.77,10.86l5064.18 2391.75c88.88,41.97 198.36,66.53 303.1,72.25 96.49,5.27 182.07,-4.41 233.37,-30.32l8573.61 -4329.22c-6.84,-3.61 -14.1,-7.24 -21.77,-10.86zm-685.24 840.91l-7676.44 3876.19c-118.3,59.74 -279.93,84 -445.03,74.98 -156.85,-8.57 -323.43,-46.58 -461.84,-111.95l-4192.62 -1980.12 -713.09 360.06c6.84,3.61 14.1,7.24 21.77,10.86l5064.18 2391.75c88.88,41.97 198.36,66.53 303.1,72.25 96.49,5.27 182.07,-4.41 233.37,-30.32l8573.61 -4329.22c-6.84,-3.61 -14.1,-7.24 -21.77,-10.86l-685.24 -323.62zm685.24 -2005.44l-685.24 -323.62 -7676.44 3876.19c-118.3,59.74 -279.93,84 -445.03,74.98 -156.85,-8.57 -323.43,-46.58 -461.84,-111.95l-4192.62 -1980.12 -713.09 360.06c6.84,3.61 14.1,7.24 21.77,10.86l5064.18 2391.75c88.88,41.97 198.36,66.53 303.1,72.25 96.49,5.27 182.07,-4.41 233.37,-30.32l8573.61 -4329.22c-6.84,-3.61 -14.1,-7.24 -21.77,-10.86zm-5600.65 -3598.21l-8573.61 4329.22c6.84,3.61 14.1,7.24 21.77,10.86l5064.18 2391.75c88.88,41.97 198.36,66.53 303.1,72.25 96.49,5.27 182.07,-4.41 233.37,-30.32l8573.61 -4329.22c-6.84,-3.61 -14.1,-7.24 -21.77,-10.86l-5064.18 -2391.74c-88.88,-41.98 -198.36,-66.54 -303.09,-72.26 -96.49,-5.27 -182.07,4.41 -233.38,30.32z"/>
 </g>
</svg>
