<?xml version="1.0" encoding="UTF-8"?>
<!DOCTYPE svg PUBLIC "-//W3C//DTD SVG 1.1//EN" "http://www.w3.org/Graphics/SVG/1.1/DTD/svg11.dtd">
<!-- Creator: CorelDRAW 2020 (64-Bit) -->
<svg xmlns="http://www.w3.org/2000/svg" xml:space="preserve" width="210mm" height="297mm" version="1.1" style="shape-rendering:geometricPrecision; text-rendering:geometricPrecision; image-rendering:optimizeQuality; fill-rule:evenodd; clip-rule:evenodd"
viewBox="0 0 21000 29700"
 xmlns:xlink="http://www.w3.org/1999/xlink"
 xmlns:xodm="http://www.corel.com/coreldraw/odm/2003">
 <defs>
  <style type="text/css">
   <![CDATA[
    .str0 {stroke:#2B2A29;stroke-width:423.33;stroke-miterlimit:22.9256}
    .fil1 {fill:none}
    .fil0 {fill:#2B2A29;fill-rule:nonzero}
   ]]>
  </style>
 </defs>
 <g id="Warstwa_x0020_1">
  <metadata id="CorelCorpID_0Corel-Layer"/>
  <path class="fil0" d="M10201.36 12762.45l-2351.11 1187.18c-118.3,59.74 -279.93,84 -445.03,74.98 -156.85,-8.57 -323.43,-46.58 -461.84,-111.95l-4192.62 -1980.12 -713.09 360.06c6.84,3.61 14.1,7.24 21.77,10.86l5064.18 2391.75c88.88,41.97 198.36,66.53 303.1,72.25 96.49,5.27 182.07,-4.41 233.37,-30.32l3910.68 -1974.69 936.82 0 -4657.34 2351.71c-118.3,59.74 -279.93,84 -445.03,74.98 -156.85,-8.57 -323.43,-46.58 -461.84,-111.95l-4192.62 -1980.12 -713.09 360.06c6.84,3.61 14.1,7.24 21.77,10.86l5064.18 2391.75c88.88,41.97 198.36,66.53 303.1,72.25 96.49,5.27 182.07,-4.41 233.37,-30.32l6216.92 -3139.22 1369.42 0 -7396.18 3516.24c-118.3,59.74 -279.93,84 -445.03,74.98 -156.85,-8.57 -323.43,-46.58 -461.84,-111.95l-5064.18 -2391.75c-98.08,-46.32 -174.65,-102.47 -227.44,-162.51 -56.4,-64.14 -89.6,-135.36 -98.33,-209.27 -10.31,-87.02 12.8,-169.83 70.82,-243.22 35.97,-45.5 84.33,-84.71 145.13,-115.41l497.31 -251.11 -387.49 -183.01c-98.08,-46.32 -174.65,-102.47 -227.44,-162.51 -56.4,-64.14 -89.6,-135.36 -98.33,-209.27 -10.31,-87.02 12.8,-169.83 70.82,-243.22 35.97,-45.5 84.33,-84.71 145.13,-115.41l497.31 -251.11 -387.49 -183.01c-98.08,-46.32 -174.65,-102.47 -227.44,-162.51 -56.4,-64.14 -89.6,-135.36 -98.33,-209.27 -10.31,-87.02 12.8,-169.83 70.82,-243.22 35.97,-45.5 84.33,-84.71 145.13,-115.41l497.31 -251.11 -387.49 -183.01c-98.08,-46.32 -174.65,-102.45 -227.44,-162.51 -56.41,-64.15 -89.6,-135.34 -98.33,-209.27 -10.31,-87.01 12.79,-169.84 70.82,-243.21 35.96,-45.49 84.32,-84.71 145.13,-115.42l3842.73 -1940.37 0 473.04 -3574.44 1804.9c6.84,3.61 14.1,7.24 21.77,10.86l3552.67 1677.89 0 467.1 -2861.35 -1351.38 -713.09 360.06c6.84,3.61 14.1,7.24 21.77,10.86l5064.18 2391.75c88.88,41.97 198.36,66.53 303.1,72.25 96.49,5.27 182.07,-4.41 233.37,-30.32l1604.45 -810.16 936.82 0z"/>
  <rect class="fil1 str0" transform="matrix(2.64845E-14 1 -1 2.64845E-14 17634.8 5396.45)" width="7366" height="12022.67" rx="500" ry="500"/>
 </g>
</svg>
